<?xml version="1.0" encoding="utf-8"?>
<!-- Generator: Adobe Illustrator 23.0.4, SVG Export Plug-In . SVG Version: 6.00 Build 0)  -->
<svg version="1.1" id="Layer_1" xmlns="http://www.w3.org/2000/svg" xmlns:xlink="http://www.w3.org/1999/xlink" x="0px" y="0px"
	 width="856px" height="443px" viewBox="0 0 856 443" style="enable-background:new 0 0 856 443;" xml:space="preserve">
<style type="text/css">
	.st0{fill:none;stroke:#252525;stroke-width:5.07;stroke-linecap:round;stroke-dasharray:1.000000e-03,20.28;}
	.st1{fill-rule:evenodd;clip-rule:evenodd;fill:#FFFFFF;stroke:#191919;stroke-width:3;stroke-linejoin:round;}
	.st2{fill:#FFFFFF;stroke:#191919;stroke-width:3;stroke-linejoin:round;}
	.st3{fill:#191919;}
	.st4{font-family:'IBMPlexSans-Medium';}
	.st5{font-size:25.36px;}
	.st6{font-family:'IBMPlexSans';}
	.st7{font-size:24px;}
	.st8{fill:none;stroke:#252525;stroke-width:2;}
</style>
<path id="Shape_2_copy" class="st0" d="M593.91,236.05h-99.29"/>
<path class="st0" d="M363.9,237.02h-99.29"/>
<path id="milestone4" class="st1" d="M218.93,159.78c42.12,0.01,76.26,34.16,76.25,76.28c-0.01,42.12-34.16,76.26-76.28,76.25
	c-42.11-0.01-76.25-34.15-76.25-76.26C142.66,193.92,176.8,159.78,218.93,159.78C218.93,159.78,218.93,159.78,218.93,159.78z"/>
<circle id="milestone5" class="st2" cx="428.39" cy="237.02" r="76.27"/>
<ellipse id="milestone6" class="st2" cx="637.65" cy="237.02" rx="76.25" ry="76.27"/>
<text transform="matrix(1 0 0 1 199.2097 225.8452)" class="st3 st4 st5">Oct</text>
<text transform="matrix(1 0 0 1 188.9011 260.7153)" class="st3 st4 st5">2019</text>
<text transform="matrix(1 0 0 1 407.737 225.8452)" class="st3 st4 st5">Nov</text>
<text transform="matrix(1 0 0 1 399.9011 260.7153)" class="st3 st4 st5">2019</text>
<text transform="matrix(1 0 0 1 607.5554 228.8452)" class="st3 st4 st5">Dec 1</text>
<text transform="matrix(1 0 0 1 609.9011 263.7153)" class="st3 st4 st5">2019</text>
<text transform="matrix(1 0 0 1 587.5721 362.29)" class="st3 st6 st7">2nd Wave</text>
<text transform="matrix(1 0 0 1 592.9841 392.29)" class="st3 st6 st7">Deadline</text>
<text id="Grants_Wave_2" transform="matrix(1 0 0 1 347.3875 83.6801)" class="st3 st6 st7">Grants Wave 2</text>
<path class="st8" d="M427.34,102v18"/>
<path id="Rounded_Rectangle_1-2" class="st8" d="M143.34,160c0-22.09,17.91-40,40-40h485c22.09,0,21.58-0.7,40,0"/>
<path id="Shape_2_copy-2" class="st0" d="M807.42,119.9h-99.29"/>
<text transform="matrix(1 0 0 1 166.5721 362.29)" class="st3 st6 st7">2nd Wave</text>
<text transform="matrix(1 0 0 1 186.9841 392.29)" class="st3 st6 st7">Open</text>
</svg>
